<?xml version="1.0" encoding="utf-8"?>
<!-- Generator: Adobe Illustrator 19.2.1, SVG Export Plug-In . SVG Version: 6.00 Build 0)  -->
<svg version="1.1" id="master-artboard" xmlns="http://www.w3.org/2000/svg" xmlns:xlink="http://www.w3.org/1999/xlink" x="0px"
	 y="0px" viewBox="0 0 640 640" style="enable-background:new 0 0 640 640;" xml:space="preserve">
<style type="text/css">
	.st0{fill:#707070;}
	.st1{fill:#EFCE9E;}
	.st2{fill:#BE1622;}
	.st3{fill:#1D71B8;}
</style>
<path class="st0" d="M0,0.1h640V640H0V0.1z"/>
<g transform="matrix(1, 0, 0, 1, -85.34486389160156, -10.862064361572266)">
	<g>
		<path class="st1" d="M500.9,345.6c-4-4-8.9-5.9-14-6.4c0,0,0,0,0-0.2c-28.5-1.3-51-10.2-66.5-26.5c-13-13.8-18.3-29.7-20.4-41
			l-18,2.1c-25.7,62-65.2,51.4-68.8,50.1c-6-1.9-9.6-7.9-8.7-14.2l12.9-85.4c0.4-2.8,1.7-5.1,3.6-7.2h-60.5l-40.3,155.3l20,13.8
			l28.7-28.7c6.6-6.6,15.5-10.4,24.9-10.4s18.3,3.6,24.9,10.4c2.8,2.8,5.1,6,6.8,9.6c4-1.7,8.3-2.6,12.9-2.6
			c8.9,0,17.4,3.4,23.6,9.8c7.6,7.6,10.6,17.6,9.4,27.4c4.9,1.7,9.4,4.5,13.2,8.3c6.4,6.4,10,15.1,10,24.2c0,3.2-0.4,6.4-1.3,9.6
			c2.5,1.3,4.7,3,6.8,5.1c5.5,5.5,8.3,12.5,8.9,19.8c-2.1,7.6-0.4,16.1,5.7,21.9l8.7,8.7c8.7,8.7,22.9,8.7,31.7,0
			c3.6-3.6,5.7-8.1,6.2-12.9c8.7,5.3,20,4.3,27.6-3.2c6-6,7.7-14.6,5.5-22.3l1.5,1.5c8.7,8.7,22.9,8.7,31.7,0
			c8.7-8.7,8.7-22.9,0-31.7l-2.8-2.8c7,1.3,14.4-0.8,19.8-6.2c8.7-8.7,8.7-22.9,0-31.7L500.9,345.6z"/>
		<path class="st1" d="M531.3,218.9l-130-29.3l-70.9,36.5l-12.9,85.4c0,0,33.6,11,55.6-49.7l38.7-4.5c0,0-4,82.8,109.2,67.3
			l-14.9,9.6l54.2,49.5l15.3-8.7L531.3,218.9z"/>
		<path class="st1" d="M370.8,454.4l5.3-5.3c8.3-8.3,8.3-21.9,0-30.2c-7.2-7.2-18.3-8.1-26.6-2.8l4-4c7.9-7.9,7.9-21,0-28.9
			c-7.9-7.9-21-7.9-28.9,0l-12.3,12.3c6.4-8.7,5.9-21.2-2.1-29.1c-8.7-8.7-22.9-8.7-31.7,0l-44.2,44.2c-8.7,8.7-8.7,22.9,0,31.7
			c8.5,8.5,22.1,8.7,31,0.6c-6.2,7.9-5.9,19.7,1.5,27c7.9,7.9,21,7.9,28.9,0l5.5-5.5c-5.3,8.3-4.3,19.5,2.8,26.6
			c8.3,8.3,21.9,8.3,30.2,0l3.8-3.8c-3.2,6.8-2.1,15.1,3.4,20.8c7.2,7.2,18.7,7.2,25.7,0l24.4-24.4c7.2-7.2,7.2-18.7,0-25.7
			C386,452.1,377.6,451.2,370.8,454.4z"/>
	</g>
	<path class="st2" d="M219.8,378.6l47.4-165l-71.6-18.1l-46.5,162.9L219.8,378.6z"/>
	<path class="st3" d="M529.6,212.9l42.7,167.8l71.6-15.9l-43.1-167.4L529.6,212.9z"/>
</g>
</svg>
