<?xml version="1.0" encoding="utf-8"?>
<!-- Generator: Adobe Illustrator 19.2.1, SVG Export Plug-In . SVG Version: 6.00 Build 0)  -->
<svg version="1.1" id="master-artboard" xmlns="http://www.w3.org/2000/svg" xmlns:xlink="http://www.w3.org/1999/xlink" x="0px"
	 y="0px" viewBox="0 0 1400 1400" style="enable-background:new 0 0 1400 1400;" xml:space="preserve">
<style type="text/css">
	.st0{fill:#707070;}
	.st1{fill:#303030;}
	.st2{fill:#F4E4AE;}
	.st3{fill:#F9ECC7;}
	.st4{fill:#FFFFFF;}
	.st5{fill:#AF47BF;}
	.st6{fill:#FFCC3E;}
	.st7{fill:#FF4F47;}
	.st8{fill:#00B2BD;}
	.st9{fill:#FFB783;}
	.st10{fill:#F4995B;}
	.st11{fill:#EDEDED;}
	.st12{fill:#EA9918;}
	.st13{fill:#DCE2E5;}
	.st14{fill:#C7CBDD;}
	.st15{fill:#EAEAEA;}
	.st16{fill:#3A557C;}
	.st17{fill:#99AEC4;}
</style>
<path class="st0" d="M0,0h1400v1400H0V0z"/>
<g transform="matrix(1, 0, 0, 1, 0, 0)">
	<g>
		<path class="st1" d="M1033.8,895H739.3c-31.2,0-56.7-24.8-56.7-55.3V216.4c0-30.5,25.4-55.3,56.7-55.3h294.6
			c31.2,0,56.7,24.8,56.7,55.3v623.3C1090.4,870.2,1065.1,895,1033.8,895z"/>
		<path class="st2" d="M696.1,256H1077v544.3H696.1V256z"/>
		<path class="st3" d="M696.1,800.3V256H1077L696.1,800.3z"/>
		<path class="st4" d="M935.5,217.7h-98c-5.2,0-9.3-4.1-9.3-9.1l0,0c0-5,4.2-9.1,9.3-9.1h98c5.2,0,9.3,4.1,9.3,9.1l0,0
			C944.8,213.6,940.6,217.7,935.5,217.7z"/>
		<g>
			<g>
				<path class="st5" d="M1019.1,465.3H753.9c-10,0-18-7.8-18-17.6V313.2c0-9.7,8-17.6,18-17.6h265.3c10,0,18,7.8,18,17.6v134.6
					C1037.1,457.4,1029,465.3,1019.1,465.3z"/>
				<path class="st1" d="M735.8,334.1H1037v27.7H735.8V334.1z"/>
				<g>
					<path class="st6" d="M993.3,427.2c0,10.5-8.7,19-19.5,19l0,0c-10.8,0-19.5-8.6-19.5-19l0,0c0-10.5,8.7-19,19.5-19l0,0
						C984.5,408.1,993.3,416.7,993.3,427.2L993.3,427.2z"/>
					<path class="st7" d="M1012.8,427.2c0,10.5-8.7,19-19.5,19l0,0c-10.8,0-19.5-8.6-19.5-19l0,0c0-10.5,8.7-19,19.5-19l0,0
						C1004.1,408.1,1012.8,416.7,1012.8,427.2L1012.8,427.2z"/>
				</g>
				<g>
					<path class="st4" d="M761.2,383h80.4v12.1h-80.4V383z"/>
					<path class="st4" d="M761.2,404.1h80.4v12.1h-80.4V404.1z"/>
					<path class="st4" d="M761.2,425.2h80.4v12.1h-80.4V425.2z"/>
				</g>
			</g>
			<g>
				<g>
					<path class="st8" d="M831.8,534.7c0,12.2-10.2,22.2-22.7,22.2l0,0c-12.6,0-22.7-9.9-22.7-22.2l0,0c0-12.2,10.2-22.2,22.7-22.2
						l0,0C821.6,512.6,831.8,522.5,831.8,534.7L831.8,534.7z"/>
					<path class="st8" d="M909.2,534.7c0,12.2-10.2,22.2-22.7,22.2l0,0c-12.6,0-22.7-9.9-22.7-22.2l0,0c0-12.2,10.2-22.2,22.7-22.2
						l0,0C899,512.6,909.2,522.5,909.2,534.7L909.2,534.7z"/>
					<path class="st8" d="M986.6,534.7c0,12.2-10.2,22.2-22.7,22.2l0,0c-12.6,0-22.7-9.9-22.7-22.2l0,0c0-12.2,10.2-22.2,22.7-22.2
						l0,0C976.4,512.6,986.6,522.5,986.6,534.7L986.6,534.7z"/>
				</g>
				<g>
					<path class="st8" d="M831.8,602.6c0,12.2-10.2,22.2-22.7,22.2l0,0c-12.6,0-22.7-9.9-22.7-22.2l0,0c0-12.2,10.2-22.2,22.7-22.2
						l0,0C821.6,580.5,831.8,590.4,831.8,602.6L831.8,602.6z"/>
					<path class="st8" d="M909.2,602.6c0,12.2-10.2,22.2-22.7,22.2l0,0c-12.6,0-22.7-9.9-22.7-22.2l0,0c0-12.2,10.2-22.2,22.7-22.2
						l0,0C899,580.5,909.2,590.4,909.2,602.6L909.2,602.6z"/>
					<path class="st8" d="M986.6,602.6c0,12.2-10.2,22.2-22.7,22.2l0,0c-12.6,0-22.7-9.9-22.7-22.2l0,0c0-12.2,10.2-22.2,22.7-22.2
						l0,0C976.4,580.5,986.6,590.4,986.6,602.6L986.6,602.6z"/>
				</g>
				<g>
					<path class="st8" d="M831.8,670.5c0,12.2-10.2,22.2-22.7,22.2c-12.5,0-22.7-9.9-22.7-22.2s10.2-22.2,22.7-22.2l0,0
						C821.6,648.3,831.8,658.2,831.8,670.5L831.8,670.5z"/>
					<path class="st8" d="M909.2,670.5c0,12.2-10.2,22.2-22.7,22.2c-12.5,0-22.7-9.9-22.7-22.2s10.1-22.2,22.7-22.2l0,0
						C899,648.3,909.2,658.2,909.2,670.5L909.2,670.5z"/>
					<path class="st8" d="M986.6,670.5c0,12.2-10.2,22.2-22.7,22.2s-22.7-9.9-22.7-22.2s10.2-22.2,22.7-22.2l0,0
						C976.4,648.3,986.6,658.2,986.6,670.5L986.6,670.5z"/>
				</g>
				<g>
					<path class="st8" d="M831.8,738.5c0,12.2-10.2,22.2-22.7,22.2c-12.5,0-22.7-9.9-22.7-22.2s10.2-22.2,22.7-22.2
						C821.6,716.3,831.8,726.3,831.8,738.5z"/>
					<path class="st8" d="M909.2,738.5c0,12.2-10.2,22.2-22.7,22.2c-12.5,0-22.7-9.9-22.7-22.2s10.2-22.2,22.7-22.2
						C899,716.3,909.2,726.3,909.2,738.5z"/>
					<path class="st8" d="M986.6,738.5c0,12.2-10.2,22.2-22.7,22.2s-22.7-9.9-22.7-22.2s10.2-22.2,22.7-22.2
						S986.6,726.3,986.6,738.5z"/>
				</g>
			</g>
		</g>
		<g>
			<g>
				<path class="st9" d="M1179,793.5L1179,793.5c-20,0-36.2,15.9-36.2,35.3v-18.1c0-19.4-15.8-35.6-35.7-35.8
					c-20.3-0.3-36.6,15.7-36.6,35.3V792c0-19.4-15.8-35.6-35.7-35.8c-20.3-0.3-36.6,15.7-36.6,35.3V580.7
					c0-19.5-16.2-35.3-36.2-35.3l0,0c-20,0-36.2,15.9-36.2,35.3v221.8l0,0c-36.8,0-66.7,29.1-66.7,65v71.6c0,16,6.1,31.3,16.9,43.2
					l31.5,34.5c11.6,12.8,18.2,29.4,18.2,46.5v78.2h237.9v-20.3c0-35.7,8.8-70.7,25.8-102.3l0,0c16.9-31.5,25.8-66.7,25.8-102.3
					v-87.9C1215.1,809.4,1199,793.5,1179,793.5z"/>
				<g>
					<path class="st10" d="M918.1,927.9c4.2,0,7.7-3.3,7.7-7.5V802.6c-5.3,0-10.5,0.6-15.4,1.7v116.1
						C910.4,924.5,913.9,927.9,918.1,927.9z"/>
				</g>
			</g>
			<path class="st11" d="M915.4,1105.8H1174v79.6H915.4V1105.8z"/>
			<path class="st1" d="M897.4,1132.9h294.8v186.3H897.4V1132.9z"/>
		</g>
	</g>
	<g>
		<g>
			<g>
				<path class="st6" d="M646.5,281.4c0,37.8-31.4,68.4-70.2,68.4l0,0c-38.7,0-70.2-30.7-70.2-68.4l0,0c0-37.8,31.4-68.4,70.2-68.4
					l0,0C615.1,212.9,646.5,243.6,646.5,281.4L646.5,281.4z"/>
			</g>
			<g>
				<path class="st12" d="M576.4,339c-32.6,0-59.2-25.9-59.2-57.8s26.5-57.8,59.2-57.8c32.6,0,59.2,25.9,59.2,57.8
					S609,339,576.4,339z M576.4,229.1c-29.6,0-53.5,23.5-53.5,52.3s24,52.3,53.5,52.3c29.5,0,53.5-23.5,53.5-52.3
					S606,229.1,576.4,229.1z"/>
			</g>
			<path class="st12" d="M581.9,276h-11c-3.1,0-5.5-2.3-5.5-5.3s2.4-5.3,5.5-5.3h21.9c3.1,0,5.6-2.4,5.6-5.5c0-3.1-2.5-5.5-5.6-5.5
				h-10.9v-4.1c0-3.1-2.5-5.5-5.6-5.5c-3.1,0-5.6,2.4-5.6,5.5v4.1c-9.1,0.1-16.5,7.3-16.5,16.1c0,8.9,7.4,16.1,16.5,16.1h11
				c3.1,0,5.5,2.3,5.5,5.3s-2.4,5.3-5.5,5.3h-21.9c-3.1,0-5.6,2.4-5.6,5.5c0,3.1,2.5,5.5,5.6,5.5h10.9v4.1c0,3.1,2.5,5.5,5.6,5.5
				c3.1,0,5.6-2.4,5.6-5.5v-4.1c9.1-0.1,16.5-7.3,16.5-16.1C598.5,283.2,591,276,581.9,276z"/>
		</g>
		<g>
			<g>
				<path class="st6" d="M440.1,309c0,42.9-35.6,77.6-79.5,77.6s-79.5-34.7-79.5-77.6l0,0c0-42.9,35.6-77.6,79.5-77.6
					S440.1,266.2,440.1,309z"/>
			</g>
			<g>
				<path class="st12" d="M360.6,374.4c-37,0-67.1-29.4-67.1-65.4s30.1-65.4,67.1-65.4s67.1,29.4,67.1,65.4S397.6,374.4,360.6,374.4
					z M360.6,249.8c-33.5,0-60.7,26.6-60.7,59.3s27.3,59.3,60.7,59.3s60.7-26.6,60.7-59.3C421.4,276.3,394.2,249.8,360.6,249.8z"/>
			</g>
			<path class="st12" d="M366.8,302.8h-12.4c-3.4,0-6.2-2.7-6.2-6c0-3.3,2.8-6,6.2-6h24.9c3.5,0,6.3-2.8,6.3-6.2s-2.9-6.2-6.3-6.2
				h-12.4v-4.8c0-3.4-2.9-6.2-6.3-6.2c-3.5,0-6.3,2.8-6.3,6.2v4.8c-10.4,0.1-18.7,8.3-18.7,18.4c0,10.1,8.5,18.4,18.8,18.4h12.5
				c3.4,0,6.2,2.7,6.2,6s-2.8,6-6.2,6h-24.9c-3.5,0-6.3,2.8-6.3,6.2s2.9,6.2,6.3,6.2h12.4v4.8c0,3.4,2.9,6.2,6.3,6.2
				s6.3-2.8,6.3-6.2v-4.8c10.4-0.1,18.7-8.3,18.7-18.4C385.6,311.1,377.2,302.8,366.8,302.8z"/>
		</g>
		<g>
			<g>
				<path class="st6" d="M471.2,475.2c0,39.5-32.9,71.5-73.3,71.5s-73.3-32-73.3-71.5s32.9-71.5,73.3-71.5S471.2,435.7,471.2,475.2z
					"/>
			</g>
			<g>
				<path class="st12" d="M397.9,535.5c-34.1,0-61.9-27-61.9-60.4s27.7-60.4,61.9-60.4s61.9,27,61.9,60.4S431.9,535.5,397.9,535.5z
					 M397.9,420.5c-30.9,0-56,24.5-56,54.7s25.2,54.7,56,54.7s56-24.5,56-54.7C453.8,445,428.8,420.5,397.9,420.5z"/>
			</g>
			<path class="st12" d="M403.6,469.5h-11.4c-3.1,0-5.7-2.5-5.7-5.6c0-3.1,2.6-5.6,5.7-5.6H415c3.2,0,5.8-2.5,5.8-5.7
				s-2.6-5.7-5.8-5.7h-11.4v-4.3c0-3.2-2.6-5.7-5.8-5.7s-5.8,2.5-5.8,5.7v4.4c-9.5,0.1-17.2,7.7-17.2,16.8c0,9.3,7.8,16.8,17.3,16.8
				h11.4c3.1,0,5.7,2.5,5.7,5.6c0,3.1-2.6,5.6-5.7,5.6h-22.9c-3.2,0-5.8,2.5-5.8,5.7s2.6,5.7,5.8,5.7h11.4v4.4
				c0,3.2,2.6,5.7,5.8,5.7s5.8-2.5,5.8-5.7v-4.4c9.5-0.1,17.2-7.7,17.2-16.8C420.9,477,413.2,469.5,403.6,469.5z"/>
		</g>
		<g>
			<g>
				<path class="st6" d="M312.9,445.8c0,27.7-23.1,50.2-51.4,50.2l0,0c-28.4,0-51.4-22.5-51.4-50.2l0,0c0-27.7,23.1-50.2,51.4-50.2
					l0,0C290,395.6,312.9,418.1,312.9,445.8L312.9,445.8z"/>
			</g>
			<g>
				<path class="st12" d="M261.5,488.1c-23.9,0-43.4-18.9-43.4-42.3s19.4-42.3,43.4-42.3s43.4,18.9,43.4,42.3
					S285.5,488.1,261.5,488.1z M261.5,407.5c-21.6,0-39.3,17.2-39.3,38.3c0,21.1,17.7,38.3,39.3,38.3c21.6,0,39.3-17.2,39.3-38.3
					C300.8,424.7,283.1,407.5,261.5,407.5z"/>
			</g>
			<path class="st12" d="M265.6,441.8h-8c-2.2,0-4-1.7-4-3.9c0-2.2,1.8-3.9,4-3.9h16.1c2.2,0,4.1-1.8,4.1-4s-1.8-4-4.1-4h-8.1v-3.1
				c0-2.2-1.8-4-4.1-4s-4.1,1.8-4.1,4v3.2c-6.7,0-12.1,5.3-12.1,11.8s5.5,11.8,12.1,11.8h8c2.2,0,4,1.7,4,3.9s-1.8,3.9-4,3.9h-16
				c-2.2,0-4.1,1.8-4.1,4c0,2.2,1.8,4,4.1,4h8v3.1c0,2.2,1.8,4,4.1,4s4.1-1.8,4.1-4v-3.2c6.7,0,12.1-5.3,12.1-11.8
				C277.7,447.2,272.2,441.8,265.6,441.8z"/>
		</g>
		<g>
			<g>
				<path class="st6" d="M643.7,464.9c0,32.9-27.3,59.5-61,59.5l0,0c-33.7,0-61-26.6-61-59.5l0,0c0-32.9,27.3-59.5,61-59.5l0,0
					C616.4,405.4,643.7,432.1,643.7,464.9L643.7,464.9z"/>
			</g>
			<g>
				<path class="st12" d="M582.7,515.1c-28.4,0-51.5-22.5-51.5-50.3c0-27.8,23.1-50.3,51.5-50.3c28.4,0,51.5,22.5,51.5,50.3
					S611.1,515.1,582.7,515.1z M582.7,419.4c-25.7,0-46.6,20.5-46.6,45.5c0,25,21,45.5,46.6,45.5c25.7,0,46.6-20.5,46.6-45.5
					C629.3,439.9,608.4,419.4,582.7,419.4z"/>
			</g>
			<path class="st12" d="M587.4,460.1h-9.5c-2.6,0-4.7-2.1-4.7-4.6s2.1-4.6,4.7-4.6h19c2.7,0,4.8-2.1,4.8-4.7c0-2.6-2.1-4.7-4.8-4.7
				h-9.4v-3.7c0-2.6-2.1-4.7-4.8-4.7c-2.7,0-4.8,2.1-4.8,4.7v3.7c-8,0.1-14.3,6.3-14.3,14.1c0,7.7,6.5,14.1,14.4,14.1h9.5
				c2.6,0,4.7,2.1,4.7,4.6s-2.1,4.6-4.7,4.6h-19c-2.7,0-4.8,2.1-4.8,4.7s2.1,4.7,4.8,4.7h9.4v3.7c0,2.6,2.1,4.7,4.8,4.7
				c2.7,0,4.8-2.1,4.8-4.7v-3.7c8-0.1,14.3-6.3,14.3-14.1C601.8,466.5,595.5,460.1,587.4,460.1z"/>
		</g>
		<g>
			<g>
				<path class="st6" d="M595.1,368.3c0,42.9-35.6,77.6-79.5,77.6l0,0c-43.9,0-79.5-34.7-79.5-77.6l0,0c0-42.9,35.6-77.6,79.5-77.6
					l0,0C559.6,290.8,595.1,325.5,595.1,368.3L595.1,368.3z"/>
			</g>
			<g>
				<path class="st12" d="M515.6,433.7c-37,0-67.1-29.4-67.1-65.4s30.1-65.4,67.1-65.4s67.1,29.4,67.1,65.4S552.6,433.7,515.6,433.7
					z M515.6,309c-33.5,0-60.7,26.6-60.7,59.3s27.3,59.3,60.7,59.3s60.7-26.6,60.7-59.3S549.2,309,515.6,309z"/>
			</g>
			<path class="st12" d="M521.9,362.1h-12.5c-3.4,0-6.2-2.7-6.2-6s2.8-6,6.2-6h25c3.5,0,6.3-2.8,6.3-6.2c0-3.4-2.9-6.2-6.3-6.2H522
				v-4.8c0-3.4-2.9-6.2-6.3-6.2s-6.3,2.8-6.3,6.2v4.8c-10.3,0-18.7,8.2-18.7,18.3c0,10.1,8.5,18.4,18.8,18.4h12.5
				c3.4,0,6.2,2.7,6.2,6s-2.8,6-6.2,6h-25c-3.5,0-6.3,2.8-6.3,6.2s2.9,6.2,6.3,6.2h12.4v4.8c0,3.4,2.9,6.2,6.3,6.2s6.3-2.8,6.3-6.2
				v-4.8c10.4-0.1,18.7-8.3,18.7-18.4C540.7,370.3,532.2,362.1,521.9,362.1z"/>
		</g>
	</g>
	<g>
		<path class="st13" d="M780.6,602.6H527.3c-32.3,0-58.3,25.5-58.3,56.9v386.7h194.9c32.3,0,58.3-25.5,58.3-56.9V659.7
			C722.3,628.1,748.3,602.6,780.6,602.6z"/>
		<path class="st14" d="M663.7,1046.3H410.5c-32.3,0-58.3-25.5-58.3-56.9v-341h194.9c32.3,0,58.3,25.5,58.3,56.9v284
			C605.4,1020.8,631.5,1046.3,663.7,1046.3z"/>
		<path class="st15" d="M547,648.4c-32.3,0-58.3,25.5-58.3,56.9V1127H235.3V705.3c0-31.4,26.1-56.9,58.3-56.9H547z"/>
		<g>
			<g>
				<path class="st16" d="M455.6,717.1H268.3c-2.9,0-5.1-2.3-5.1-5l0,0c0-2.8,2.3-5,5.1-5h187.2c2.9,0,5.1,2.3,5.1,5l0,0
					C460.8,714.9,458.4,717.1,455.6,717.1z"/>
				<path class="st17" d="M455.6,752.2H323.8c-2.9,0-5.1-2.3-5.1-5l0,0c0-2.8,2.3-5,5.1-5h131.8c2.9,0,5.1,2.3,5.1,5l0,0
					C460.8,749.9,458.4,752.2,455.6,752.2z"/>
				<path class="st17" d="M455.6,787.1h-96.5c-2.9,0-5.1-2.3-5.1-5l0,0c0-2.8,2.3-5,5.1-5h96.5c2.9,0,5.1,2.3,5.1,5l0,0
					C460.8,785,458.4,787.1,455.6,787.1z"/>
				<path class="st17" d="M455.6,892.1h-82.9c-2.9,0-5.1-2.3-5.1-5l0,0c0-2.8,2.3-5,5.1-5h82.9c2.9,0,5.1,2.3,5.1,5l0,0
					C460.8,889.9,458.4,892.1,455.6,892.1z"/>
				<path class="st17" d="M455.6,857.2H350.7c-2.9,0-5.1-2.3-5.1-5l0,0c0-2.8,2.3-5,5.1-5h104.9c2.9,0,5.1,2.3,5.1,5l0,0
					C460.8,854.9,458.4,857.2,455.6,857.2z"/>
				<path class="st17" d="M455.6,822.2h-93.9c-2.9,0-5.1-2.3-5.1-5l0,0c0-2.8,2.3-5,5.1-5h93.9c2.9,0,5.1,2.3,5.1,5l0,0
					C460.8,819.9,458.4,822.2,455.6,822.2z"/>
			</g>
			<path class="st16" d="M455.6,958h-82.9c-2.9,0-5.1-2.3-5.1-5v-14.2c0-2.8,2.3-5,5.1-5h82.9c2.9,0,5.1,2.3,5.1,5V953
				C460.8,955.9,458.4,958,455.6,958z"/>
		</g>
		<g>
			<g>
				<g>
					<path class="st16" d="M304.3,1002.2h10.9v71h-10.9V1002.2z"/>
					<path class="st16" d="M319.2,1002.2h6.8v71h-6.8L319.2,1002.2L319.2,1002.2z"/>
					<path class="st16" d="M331,1002.2h13.5v71H331V1002.2z"/>
					<path class="st16" d="M347.4,1002.2h5.7v71h-5.7V1002.2z"/>
					<path class="st16" d="M401.9,1002.2h10.9v71h-10.9V1002.2z"/>
					<path class="st16" d="M416.8,1002.2h6.8v71h-6.8V1002.2z"/>
					<path class="st16" d="M428.7,1002.2h13.5v88.4h-13.5V1002.2z"/>
					<path class="st16" d="M365.3,1002.2h5.7v71h-5.7V1002.2z"/>
					<path class="st16" d="M374.6,1002.2h8.5v71h-8.5V1002.2z"/>
					<path class="st16" d="M386.2,1002.2h3.3v71h-3.3V1002.2z"/>
					<path class="st16" d="M392.7,1002.2h3.3v71h-3.3V1002.2z"/>
				</g>
				<g>
					<path class="st16" d="M281.8,1002.2h10.9v87.4h-10.9V1002.2z"/>
				</g>
			</g>
		</g>
	</g>
</g>
</svg>
