<?xml version="1.0" encoding="utf-8"?>
<!-- Generator: Adobe Illustrator 19.2.1, SVG Export Plug-In . SVG Version: 6.00 Build 0)  -->
<svg version="1.1" id="master-artboard" xmlns="http://www.w3.org/2000/svg" xmlns:xlink="http://www.w3.org/1999/xlink" x="0px"
	 y="0px" viewBox="0 0 640 640" style="enable-background:new 0 0 640 640;" xml:space="preserve">
<style type="text/css">
	.st0{fill:#6B9FD6;}
	.st1{fill:#8C8D8D;}
	.st2{fill:#E3E3E3;}
	.st3{fill:#474748;}
	.st4{fill:#9D805B;}
	.st5{fill:#C5A170;}
	.st6{fill:#4E4E4F;}
	.st7{fill:#F0CA31;}
	.st8{fill:#D4AB36;}
	.st9{fill:#BDBDBD;}
	.st10{fill:#D6B438;}
	.st11{fill:#DB9531;}
	.st12{fill:#737373;}
	.st13{fill:#6C5841;}
</style>
<rect id="ee-background" class="st0" width="640" height="640"/>
<g>
	<g>
		<path class="st1" d="M593.3,434.9c0,1.8-1.4,3.2-3.2,3.2h-158c-1.8,0-3.2-1.4-3.2-3.2v-25.8c0-1.8,1.4-3.1,3.2-2.9l158,14.1
			c1.8,0.1,3.2,1.8,3.2,3.5V434.9L593.3,434.9L593.3,434.9z"/>
		<path class="st2" d="M159.5,463.1c-14.1,0-26.7-5.8-35.8-15.2C132.8,457.2,145.4,463.1,159.5,463.1c1.1,0,2.2,0,3.3-0.1
			C161.7,462.9,160.6,463.1,159.5,463.1"/>
		<path class="st3" d="M159.5,433.8c-7.5,0-14.1-4.2-17.5-10.3C145.4,429.6,152,433.8,159.5,433.8c0.6,0,1.1,0,1.7-0.1
			C160.6,433.8,160.1,433.8,159.5,433.8"/>
		<g>
			<path class="st4" d="M412.3,429.1h113.5c3.9,0,7.1-3.2,7.1-7.1v-98.7c0-3.9-3.2-7.1-7.1-7.1H412.3c-3.9,0-7.1,3.2-7.1,7.1V422
				C405.2,425.9,408.4,429.1,412.3,429.1L412.3,429.1z"/>
			<path class="st5" d="M485.1,349.9v45.8c0,0.7,0.6,1.3,1.3,1.3H500c0.7,0,1.3-0.6,1.3-1.3v-45.8c0-0.7,0.6-1.3,1.3-1.3h3.9
				c1.1,0,1.7-1.4,0.8-2.1l-13.2-13.2c-0.4-0.4-1.3-0.4-1.8,0L479,346.5c-0.8,0.8-0.3,2.1,0.8,2.1h3.9
				C484.6,348.6,485.1,349.2,485.1,349.9z"/>
			<path class="st5" d="M436.7,349.9v45.8c0,0.7,0.6,1.3,1.3,1.3h13.6c0.7,0,1.3-0.6,1.3-1.3v-45.8c0-0.7,0.6-1.3,1.3-1.3h3.9
				c1.1,0,1.7-1.4,0.8-2.1l-13.2-13.2c-0.4-0.4-1.3-0.4-1.8,0l-13.2,13.2c-0.8,0.8-0.3,2.1,0.8,2.1h3.9
				C436.1,348.6,436.7,349.2,436.7,349.9z"/>
			<path class="st5" d="M430.3,405h77.5c2.2,0,4,1.8,4,4l0,0c0,2.2-1.8,4-4,4h-77.5c-2.2,0-4-1.8-4-4l0,0
				C426.3,406.8,428.1,405,430.3,405z"/>
		</g>
		<g>
			<path class="st4" d="M412.3,313.9h113.5c3.9,0,7.1-3.2,7.1-7.1v-98.7c0-3.9-3.2-7.1-7.1-7.1H412.3c-3.9,0-7.1,3.2-7.1,7.1v98.7
				C405.2,310.7,408.4,313.9,412.3,313.9L412.3,313.9z"/>
			<path class="st5" d="M485.1,234.7v45.8c0,0.7,0.6,1.3,1.3,1.3H500c0.7,0,1.3-0.6,1.3-1.3v-45.8c0-0.7,0.6-1.3,1.3-1.3h3.9
				c1.1,0,1.7-1.4,0.8-2.1l-13.2-13.2c-0.4-0.4-1.3-0.4-1.8,0L479,231.4c-0.8,0.8-0.3,2.1,0.8,2.1h3.9
				C484.6,233.5,485.1,234,485.1,234.7z"/>
			<path class="st5" d="M436.7,234.7v45.8c0,0.7,0.6,1.3,1.3,1.3h13.6c0.7,0,1.3-0.6,1.3-1.3v-45.8c0-0.7,0.6-1.3,1.3-1.3h3.9
				c1.1,0,1.7-1.4,0.8-2.1l-13.2-13.2c-0.4-0.4-1.3-0.4-1.8,0l-13.2,13.2c-0.8,0.8-0.3,2.1,0.8,2.1h3.9
				C436.1,233.5,436.7,234,436.7,234.7z"/>
			<path class="st5" d="M430.3,289.9h77.5c2.2,0,4,1.8,4,4l0,0c0,2.2-1.8,4-4,4h-77.5c-2.2,0-4-1.8-4-4l0,0
				C426.3,291.7,428.1,289.9,430.3,289.9z"/>
		</g>
		<path class="st6" d="M350.7,362.7h23.8v56h-23.8V362.7"/>
		<path class="st7" d="M336.3,324.2L336.3,324.2c-4.5,0-8.5-2.8-10-6.8L274.5,186c-1.9-5-7.9-9-13.4-9H158.5c-5.4,0-9.7,4.5-9.7,9.7
			v90.4H95.6c-7.9,0-14.3,6.5-14.3,14.5v32.7v9.9v89.9c0,2.6,2.1,4.7,4.7,4.7h259.9c2.6,0,4.7-2.1,4.7-4.7v-85.6
			C350.7,330.7,344.1,324.2,336.3,324.2"/>
		<path class="st8" d="M81.1,403.9v20.3c0,2.6,2.1,4.7,4.7,4.7h259.9c2.6,0,4.7-2.1,4.7-4.7v-20.3L81.1,403.9"/>
		<path class="st6" d="M151,375.3c24.4,0,44,19.6,44,43.9s-19.8,43.9-44,43.9c-24.4,0-44-19.6-44-43.9
			C106.9,395,126.6,375.3,151,375.3"/>
		<path class="st9" d="M151,401.4c9.9,0,18,7.9,18,17.8c0,9.9-8.1,17.8-18,17.8c-9.9,0-18-7.9-18-17.8
			C133.1,409.3,141.1,401.4,151,401.4"/>
		<path class="st6" d="M281.5,354.2c29.8,0,53.9,23.9,53.9,53.6s-24.1,53.6-53.9,53.6s-53.9-23.9-53.9-53.6S251.7,354.2,281.5,354.2
			"/>
		<path class="st10" d="M269.4,355.6c3.9-0.8,7.9-1.4,12.1-1.4c0.4,0,0.7,0,1.1,0c-0.4,0-0.7,0-1.1,0
			C277.3,354.2,273.2,354.6,269.4,355.6"/>
		<path class="st9" d="M281.5,386.1c12.1,0,21.9,9.7,21.9,21.9c0,12-9.7,21.9-21.9,21.9s-21.9-9.7-21.9-21.9
			C259.5,395.8,269.4,386.1,281.5,386.1"/>
		<path class="st11" d="M100.2,302.9H81.1v13.9h19.1c3.9,0,7-3.1,7-7S104.1,302.9,100.2,302.9L100.2,302.9z"/>
		<path class="st11" d="M100.2,327.9H81.1v13.9h19.1c3.9,0,7-3.1,7-7C107.2,330.9,104.1,327.9,100.2,327.9L100.2,327.9z"/>
		<path class="st11" d="M100.2,352.8H81.1v13.9h19.1c3.9,0,7-3.1,7-7C107.2,356,104.1,352.8,100.2,352.8L100.2,352.8z"/>
		<path class="st11" d="M100.2,377.8H81.1v13.9h19.1c3.9,0,7-3.1,7-7S104.1,377.8,100.2,377.8L100.2,377.8z"/>
		<path class="st12" d="M374.5,436.2c0,2.6,2.2,4.9,4.7,4.9h16.6c2.6,0,4.7-2.2,4.7-4.7V199.2c0-7.2-9.2-10.4-13.6-4.7l-4.3,5.6
			c-5.3,6.8-8.1,15-8.1,23.7V436.2"/>
		<path class="st13" d="M203.1,347.5c0,2.5-2.1,4.6-4.6,4.6h-23c-2.5,0-4.6-2.1-4.6-4.6v-4.6c0-2.5,2.1-4.6,4.6-4.6h23
			c2.5,0,4.6,2.1,4.6,4.6V347.5L203.1,347.5z"/>
		<path class="st3" d="M281.5,429.6c-12.1,0-21.9-9.7-21.9-21.9c0-12,9.7-21.9,21.9-21.9l0,0c-12.1,0-21.9,9.7-21.9,21.9
			C259.5,419.9,269.4,429.6,281.5,429.6L281.5,429.6"/>
		<path class="st0" d="M173.4,198.7h80.7c1.5,0,3.3,1.3,3.9,2.6l44.3,112.2c2.1,5.2-1.8,10.9-7.4,10.9H178.4c-4.3,0-7.9-3.5-7.9-7.9
			V201.6C170.5,199.9,171.9,198.7,173.4,198.7"/>
	</g>
</g>
</svg>
