<?xml version="1.0" encoding="utf-8"?>
<!-- Generator: Adobe Illustrator 19.2.1, SVG Export Plug-In . SVG Version: 6.00 Build 0)  -->
<svg version="1.1" id="master-artboard" xmlns="http://www.w3.org/2000/svg" xmlns:xlink="http://www.w3.org/1999/xlink" x="0px"
	 y="0px" viewBox="0 0 640 640" style="enable-background:new 0 0 640 640;" xml:space="preserve">
<style type="text/css">
	.st0{fill:#6B9FD6;}
	.st1{fill:#9D805B;}
	.st2{fill:#C5A170;}
	.st3{fill:#3D4A5D;}
	.st4{fill:#ADBDBD;}
</style>
<rect id="ee-background" class="st0" width="640" height="640"/>
<g>
	<g>
		<g>
			<g>
				<path class="st1" d="M344.3,368.6h153.2c5.2,0,9.6-4.3,9.6-9.6V225.8c0-5.2-4.3-9.6-9.6-9.6H344.3c-5.2,0-9.6,4.3-9.6,9.6v133.2
					C334.7,364.3,339.1,368.6,344.3,368.6L344.3,368.6z"/>
				<path class="st2" d="M439.4,340.1h-15.4v-39.6c14.5-1.5,25.8-13.7,25.8-28.7c0-7.6-3-22-7.8-34.8c-0.6-1.6-2.1-2.7-3.9-2.7h-5.4
					c-0.3,0-0.4,0.1-0.7,0.3l-12.8,12.8h11.1c1.2,0,2.4,0.7,2.8,1.9c0.4,1.2,0.1,2.5-0.6,3.3L414,271.2c-0.6,0.6-1.3,0.9-2.2,0.9
					c-0.9,0-1.6-0.3-2.2-0.9c-1.2-1.2-1.2-3.1,0-4.3l13.3-13.3h-11.1c-1.2,0-2.4-0.7-2.8-1.9c-0.4-1.2-0.1-2.5,0.6-3.4l12.4-12.4
					c0.6-0.6,0.1-1.6-0.7-1.6h-17.5c-1.6,0-3.3,1-3.9,2.7c-4.9,12.8-7.8,27.2-7.8,34.8c0,14.9,11.4,27.2,25.8,28.7v39.6h-15.4
					c-1.6,0-3.1,1.3-3.1,3.1c0,1.6,1.3,3.1,3.1,3.1h37c1.6,0,3.1-1.3,3.1-3.1C442.4,341.4,441.1,340.1,439.4,340.1L439.4,340.1z"/>
			</g>
			<g>
				<path class="st1" d="M155.4,368.6h153.2c5.2,0,9.6-4.3,9.6-9.6V225.8c0-5.2-4.3-9.6-9.6-9.6H155.4c-5.2,0-9.6,4.3-9.6,9.6v133.2
					C145.8,364.3,150.1,368.6,155.4,368.6L155.4,368.6z"/>
				<path class="st2" d="M253.8,261.7v61.8c0,0.9,0.7,1.6,1.6,1.6H274c0.9,0,1.6-0.7,1.6-1.6v-61.8c0-0.9,0.7-1.6,1.6-1.6h5.2
					c1.5,0,2.2-1.8,1.2-2.8l-17.8-17.8c-0.6-0.6-1.6-0.6-2.4,0l-17.8,17.8c-1,1-0.3,2.8,1.2,2.8h5.2
					C253,260,253.8,260.8,253.8,261.7z"/>
				<path class="st2" d="M188.4,261.7v61.8c0,0.9,0.7,1.6,1.6,1.6h18.5c0.9,0,1.6-0.7,1.6-1.6v-61.8c0-0.9,0.7-1.6,1.6-1.6h5.2
					c1.5,0,2.2-1.8,1.2-2.8l-17.8-17.8c-0.6-0.6-1.6-0.6-2.4,0l-17.8,17.8c-1,1-0.3,2.8,1.2,2.8h5.2
					C187.6,260,188.4,260.8,188.4,261.7z"/>
				<path class="st2" d="M179.7,336.1h104.7c3,0,5.4,2.4,5.4,5.4l0,0c0,3-2.4,5.4-5.4,5.4H179.7c-3,0-5.4-2.4-5.4-5.4l0,0
					C174.2,338.4,176.7,336.1,179.7,336.1z"/>
			</g>
		</g>
		<g>
			<path class="st3" d="M496,393.1h48.5c8.1,0,14.5,5.1,14.5,11.5v7.6c0,6.3-6.4,11.5-14.5,11.5H496c-8.1,0-14.5-5.1-14.5-11.5v-7.6
				C481.6,398.2,488,393.1,496,393.1z"/>
			<path class="st3" d="M302.2,393.1h48.5c8.1,0,14.5,5.1,14.5,11.5v7.6c0,6.3-6.4,11.5-14.5,11.5h-48.5c-8.1,0-14.5-5.1-14.5-11.5
				v-7.6C287.7,398.2,294.3,393.1,302.2,393.1z"/>
			<path class="st3" d="M108.5,393.1H157c8.1,0,14.5,5.1,14.5,11.5v7.6c0,6.3-6.4,11.5-14.5,11.5h-48.5c-8.1,0-14.5-5.1-14.5-11.5
				v-7.6C94,398.2,100.4,393.1,108.5,393.1z"/>
			<path class="st4" d="M74.6,368.6h503.8c10.8,0,19.4,6.9,19.4,15.2l0,0c0,8.4-8.7,15.2-19.4,15.2H74.6c-10.8,0-19.4-6.9-19.4-15.2
				l0,0C55.2,375.5,63.8,368.6,74.6,368.6z"/>
		</g>
	</g>
</g>
</svg>
